<svg width="694" height="115" viewBox="0 0 694 115" fill="none" xmlns="http://www.w3.org/2000/svg">
<path d="M537.319 3.91199C566.788 0.558087 591.179 20.0921 594.28 49.4511C597.764 82.404 582.991 109.763 548.21 113.372C535.593 115.251 519.979 110.806 509.753 102.934C486.613 85.114 484.726 44.1529 502.128 21.9042C510.823 10.7867 523.335 5.42021 537.319 3.91199ZM563.687 46.9354C561.218 34.0538 552.139 28.1927 539.14 29.2138C520.148 33.283 518.8 53.8252 521.679 69.8446C524.108 83.3836 533.159 88.9851 546.683 88.0595C565.468 83.868 566.702 62.6804 563.687 46.9354Z" fill="#4124FF"/>
<path d="M117.261 3.91291C120.241 0.660171 126.774 -1.35232 130.111 1.06838C134.276 4.08987 155.971 23.0106 157.009 25.9434C162.541 29.9481 166.152 28.6844 170.78 24.3594C176.496 18.0649 183.934 12.336 190.045 6.368C196.304 0.253934 202.282 -2.39998 209.597 4.11721C212.49 6.49689 214.131 7.91879 216.268 11.0887C222.328 16.1977 221.727 24.2957 216.252 29.0082C211.311 33.2602 199.065 49.5364 194.217 52.0598C193.6 53.1418 192.915 54.2981 192.337 55.3957C192.381 59.009 192.179 60.427 194.595 63.2825C201.359 69.6418 207.424 77.4036 213.948 84.0598C220.062 90.302 223.531 96.4192 216.615 103.974C214.127 106.872 212.858 108.357 209.778 110.697C203.902 118.529 194.096 114.454 189.051 108.29C185.993 104.556 169.814 92.1028 169.052 88.7903C163.63 85.72 160.762 86.052 156.145 90.1848C151.008 95.552 145.087 100.275 139.807 105.447C133.263 111.857 124.762 120.075 116.27 110.583C113.788 108.759 112.133 106.728 110.227 104.357C105.042 100.458 104.038 92.22 108.737 87.6614C114.969 81.6145 124.272 68.6262 131.216 64.052C135.292 59.6848 134.421 55.3723 131.118 51.0325C124.917 46.1746 117.646 36.0512 111.679 30.3473C105.578 24.5157 103.533 18.252 109.565 11.2098C112.309 8.02347 113.968 6.44455 117.261 3.91291Z" fill="#4124FF"/>
<path d="M169.051 88.79C180.08 95.1885 191.33 106.185 202.687 110.915C204.48 111.665 207.782 111.036 209.777 110.696C203.901 118.528 194.095 114.454 189.05 108.29C185.993 104.556 169.813 92.1025 169.051 88.79Z" fill="#B377FE"/>
<path d="M216.268 11.0889C222.328 16.1979 221.727 24.2959 216.252 29.0084C211.311 33.2603 199.064 49.5365 194.217 52.06C197.863 44.5467 207.736 33.2111 212.505 25.8166C216.429 19.7338 217.5 18.2908 216.268 11.0889Z" fill="#B377FE"/>
<path d="M131.216 64.0518C128.829 72.3916 112.138 87.4033 109.838 97.0205C109.167 99.8252 109.65 101.728 110.227 104.356C105.042 100.458 104.038 92.2198 108.737 87.6612C114.969 81.6143 124.272 68.626 131.216 64.0518Z" fill="#B377FE"/>
<path d="M117.26 3.91291C120.24 0.660171 126.773 -1.35232 130.11 1.06838C134.275 4.08987 155.97 23.0106 157.008 25.9434C148.069 22.1981 133.036 7.05197 123.164 3.97072C121.923 3.58361 118.705 3.82814 117.26 3.91291Z" fill="#B377FE"/>
<path d="M194.596 63.2822C201.36 69.6416 207.424 77.4033 213.948 84.0596C220.063 90.3018 223.531 96.419 216.616 103.974C216.668 102.618 216.975 98.6377 216.754 97.4892C215.298 89.9463 195.898 69.0596 194.596 63.2822Z" fill="#72E7FE"/>
<path d="M116.27 110.583C118.512 110.423 120.649 111.681 123.457 111.099C131.131 109.513 150.147 91.0088 156.145 90.1846C151.008 95.5518 145.087 100.274 139.807 105.446C133.263 111.856 124.762 120.075 116.27 110.583Z" fill="#72E7FE"/>
<path d="M109.563 11.21C109.549 12.5736 109.246 16.6299 109.458 17.4685C111.821 26.8131 128.644 43.2662 131.116 51.0326C124.915 46.1748 117.644 36.0514 111.677 30.3475C105.577 24.5158 103.532 18.2521 109.563 11.21Z" fill="#72E7FE"/>
<path d="M170.779 24.3592C176.496 18.0647 183.934 12.3358 190.044 6.36778C196.303 0.253721 202.282 -2.40019 209.597 4.11699C207.545 3.9916 204.113 3.64043 202.273 4.08769C195.682 5.69043 176.102 23.4545 171.257 24.2744L170.779 24.3592Z" fill="#72E7FE"/>
<path d="M306.441 5.08377C321.949 5.06736 335.414 4.30065 347.45 16.0564C361.392 29.6717 361.525 55.5554 347.72 69.2976C338.779 78.1999 327.425 80.2546 315.284 80.3211L301.144 80.2781C301.043 90.0047 304.81 110.72 292.585 112.001C268.012 114.579 272.017 104.548 272.014 86.0984L272.013 54.2429L272.021 28.1775C272.023 23.2267 271.866 18.2336 272.275 13.3015C272.801 6.96173 277.499 5.35101 283.009 5.12478L306.441 5.08377ZM316.727 28.9812C314.177 28.2243 311.365 28.3359 308.707 28.4637C297.728 31.8199 301.22 48.082 301.102 57.8562C306.7 57.8875 313.562 58.3132 318.838 56.5906C331.593 50.2117 330.581 33.0969 316.727 28.9812Z" fill="#4124FF"/>
<path d="M9.49368 5.12257C16.7331 5.10929 28.0413 3.19054 29.0464 13.596C29.589 19.2124 29.2132 25.3026 29.2413 30.9823C29.3035 43.519 29.0874 56.0788 29.1718 68.6179C29.137 74.0202 29.9242 79.9694 34.257 83.7351C45.0163 93.0866 62.4792 87.6257 63.2468 72.5163C63.5167 67.2077 63.3792 62.1452 63.3675 56.9616L63.2792 25.7277C63.2316 11.1905 61.7433 4.07256 80.1581 5.04952C86.2609 5.37295 91.7632 6.25422 92.2867 13.7191C92.8605 21.9042 92.4757 31.6581 92.4398 39.8952L92.4761 63.1335C92.4816 69.2585 92.7406 77.0515 91.5234 82.9108C90.566 87.7624 88.5499 92.3405 85.6191 96.321C78.4999 105.973 68.1863 110.766 56.4781 112.665C32.6499 116.52 4.1015 107.091 0.562435 80.0437C-0.168424 74.4577 0.0354821 68.6531 0.0421227 62.9577L0.11673 37.8249C0.137433 30.2444 -0.105923 22.3487 0.055796 14.7741C0.179233 8.98702 3.80892 5.76749 9.49368 5.12257Z" fill="#4124FF"/>
<path d="M613.14 5.12066L664.199 5.11908C671.007 5.11674 678.074 4.86011 684.832 5.13081C690.98 5.37691 693.718 12.2281 693.57 17.4886C693.031 36.3113 671.156 23.9417 663.761 31.2359C662.562 32.4093 661.746 33.9183 661.421 35.5636C660.753 39.0765 661.011 50.091 661.011 54.4113L661.043 91.8488C661.074 98.4894 662.949 110.915 653.085 111.931C629.691 114.341 632.281 106.653 632.324 86.8332L632.414 55.548C632.437 49.8175 632.589 44.0003 632.367 38.2699C631.566 18.1093 601.546 39.0968 600.261 19.1269C599.574 8.47103 602.664 5.22808 613.14 5.12066Z" fill="#4124FF"/>
<path d="M421.781 5.13353C425.484 5.08588 430.344 4.80269 433.844 5.59957C442.734 7.6234 440.441 24.1964 440.418 31.6027L440.34 61.9074C440.328 67.1144 440.461 73.5011 440.383 78.4034C440.051 97.9933 472.441 82.7706 480.57 91.2902C486.75 97.7706 485.18 111.708 473.117 112.134L437.754 112.165C433.019 112.169 418.305 113.025 414.84 110.204C412.805 108.571 411.543 106.161 411.359 103.56C411.027 98.3722 411.266 90.5949 411.266 85.2081L411.269 50.841L411.277 26.2292C411.281 16.7941 408.871 5.53392 421.781 5.13353Z" fill="#4124FF"/>
<path d="M375.336 5.42586C379.875 4.86492 387.058 4.26725 391.425 5.82428C393.847 6.68756 395.644 8.3075 396.734 10.6364C397.363 11.9759 397.507 13.3509 397.57 14.8122C397.933 23.6591 398.121 103.243 396.945 106.294C395.832 109.189 393.433 110.759 390.699 111.935C366.312 113.849 368.402 109.224 368.39 88.1927L368.375 61.638C368.371 46.0755 368.269 30.4969 368.488 14.9379C368.562 9.70592 370.734 7.42234 375.336 5.42586Z" fill="#4124FF"/>
</svg>
