<?xml version="1.0" encoding="UTF-8"?>
<svg id="Capa_1" xmlns="http://www.w3.org/2000/svg" version="1.1" viewBox="0 0 900 900">
  <!-- Generator: Adobe Illustrator 29.8.1, SVG Export Plug-In . SVG Version: 2.1.1 Build 2)  -->
  <path d="M700.6,271.4h119.8c7.9,0,23.7,15.2,24.8,23.8l1.1,304.4c.7,10.6-16.3,29-25.9,29h-444.1v-67.4h402.6v-222.4h-78.3v119.8c0,7.2-16.7,24.3-24.3,24.3h-332.9v224h76.8v67.4h-220.9v-67.4h76.8v-78.3l-143.4.3v-67.4l143.4-.3v-76l-2.3-2.3H53.7v-65.8h76l2.3-2.3v-221.7H53.7v-67.4h618c9.6,0,29,16.1,29,25.8v119.8ZM633.3,193.1H200.1l-2.3,2.3v219.3l2.3,2.3h73.6l2.3-2.3v-76h-45.4v-67.4h369.7v67.4h-256.9v78.3h289.8v-224Z"/>
</svg>
